<svg xmlns="http://www.w3.org/2000/svg" height="800" width="1200" viewBox="-33.27822 -22.0016 288.41124 132.0096"><path d="M18.4443 1.8097H0v84.3817h18.4443zm14.4652 84.3817H51.354V52.5592h36.4048v33.6322h18.442V1.8097h-18.442v33.6311h-36.405V1.8098H32.9096zM180.6984 26.159l12.7784-11.9339a38.2668 38.2668 0 00-14.225-10.486 48.132 48.132 0 00-40.685 1.627 39.7491 39.7491 0 00-15.7315 15.3086q-5.7842 9.945-5.7866 23.3266a46.4745 46.4745 0 005.366 22.5417 39.589 39.589 0 0015.4293 15.6706A44.9999 44.9999 0 00160.688 88a44.3848 44.3848 0 0021.6386-5.304 39.8307 39.8307 0 0015.4293-15.0087q5.7244-9.7006 5.7244-22.6014a53.0467 53.0467 0 00-.9628-9.645h-43.76v17.1183h24.5929a17.6003 17.6003 0 01-6.9919 12.899 26.4256 26.4256 0 01-28.148 1.8672 22.6165 22.6165 0 01-8.6786-9.221 29.6647 29.6647 0 01-3.1943-14.1032 30.4555 30.4555 0 012.953-13.6827 22.6502 22.6502 0 018.4982-9.4026 23.9848 23.9848 0 0112.8992-3.4356q10.9692 0 20.0104 8.6786m41.156-14.1255a8.5135 8.5135 0 11-8.5135-8.4748 8.3905 8.3905 0 018.5135 8.4748m-1.5345 0a6.9809 6.9809 0 10-13.9592.0387 6.9803 6.9803 0 1013.9592-.0387m-3.2213 4.1033h-1.9175l-2.0335-3.2587h-.8809v3.2587h-1.8402V7.738h2.953c1.955 0 3.2212.8059 3.2212 2.5325v.0375a2.2224 2.2224 0 01-1.7265 2.2642zm-2.3005-5.7912c0-.8809-.5377-1.1878-1.4572-1.1878h-1.0742v2.454h1.0742c.9593 0 1.4572-.4205 1.4572-1.2264z" fill="#d96932"/></svg>