<svg xmlns="http://www.w3.org/2000/svg" height="800" width="1200" version="1.1" id="Layer_1" viewBox="-141.4815 -74.971 1226.173 449.826"><defs id="defs929"><style id="style927">.cls-1{fill:#978c87}</style></defs><g transform="translate(0 105.884)" id="g1487"><g transform="translate(36.57 286.468)" id="g1491"><g transform="matrix(1.5412 0 0 1.5458 -36.57 -392.321)" id="g1501" fill="#000"><path id="path1497" transform="translate(-90 -209.02)" d="M198.9 402.43v-31.55h6.94v31.55zm42.42 0L226 382.38v20.06h-6.85v-31.56h6.4l14.78 19.43v-19.43h6.85v31.55zm30.82-25.15v25.15h-6.94v-25.15h-9.6v-6.4h26.14v6.4zm18 25.15v-31.55h23.8v6.17H297v6.28h14.87v6.17H297v6.75h17.13v6.17zm54.66 0l-6.8-10.09h-5.45v10.1h-6.94v-31.56H340c7.44 0 11.9 3.92 11.9 10.41v.09a9.8 9.8 0 01-6.76 9.78l7.71 11.27zm.14-20.78c0-3-2.07-4.51-5.45-4.51h-6.9v9.06h7c3.38 0 5.32-1.8 5.32-4.46zm40.58 20.78l-15.28-20.06v20.06h-6.85v-31.55h6.4l14.78 19.43v-19.43h6.85v31.55zm40.5 0l-2.88-7.08h-13.37l-2.88 7.08h-7.08l13.52-31.78h6.4l13.52 31.78zM416.44 379l-4.19 10.23h8.38zm35-1.71v25.15h-6.94v-25.16h-9.6v-6.4h26.14v6.4zm18.74 25.15v-31.56h6.94v31.55zm34.54.54C495 403 488 395.72 488 386.75v-.09c0-9 7.08-16.32 16.81-16.32 9.73 0 16.72 7.26 16.72 16.23v.09c.01 8.97-7.06 16.34-16.8 16.34zm9.55-16.32a9.59 9.59 0 00-9.55-9.92c-5.59 0-9.47 4.42-9.47 9.83v.09a9.59 9.59 0 009.55 9.92c5.59 0 9.47-4.42 9.47-9.83zM555 402.43l-15.28-20.06v20.06h-6.82v-31.55h6.4l14.78 19.43v-19.43h6.85v31.55zm40.5 0l-2.88-7.08h-13.31l-2.88 7.08h-7.08l13.52-31.78h6.4l13.52 31.78zM586 379l-4.19 10.23h8.38zm24.63 23.44v-31.56h6.94v25.24h15.73v6.31z" class="cls-1" fill="#000"/><path id="path1499" transform="translate(-90 -209.02)" d="M416.74 270.12a27.43 27.43 0 00-11.92-3.12c-8.3 0-13 6-14.23 8v64.32h-25.17v-90.15h23.06l1.44 9.44c1-1.64 7-11.38 18.9-11.38a25.5 25.5 0 017.92 1.37zm59.73-21.52a25.51 25.51 0 00-7.92-1.37c-11.91 0-17.87 9.74-18.9 11.38l-1.44-9.44h-23.06v90.16h25.17V275c1.27-2.05 5.92-8 14.23-8a27.43 27.43 0 0111.92 3.12zM350 275.05v64.28h-23.1l-1.44-9.4c-1.59 1.54-9 11.34-24.27 11.34-14.4 0-24.34-11-24.34-25.81 0-31.9 37.62-36.39 48-37.44v-2.56c0-5.22-4.38-10.64-16-10.64-12.28 0-21.74 6.79-23.44 8v-18.59a71.27 71.27 0 0131.45-7C340 247.21 350 257.78 350 275.05zm-25.17 20.59c-8 0-22.61 2.75-22.61 15.37 0 6.4 4.38 11 9.87 11 7.14 0 12.74-5.12 12.74-16.65zm-138.13-73.2L209.33 271l-8.88 19-37.75-81-28.76 13.41 22.61 48.49c-1.77 3.78-4.61 9.93-9.21 19.72-10.34 22.11-18.34 28.3-32.51 28.3a35.42 35.42 0 01-11.42-2.11L90 345.55a58 58 0 0021.42 4.45c16.77 0 29.09-10.9 39.8-33.88l13.2-28.3 24 51.54h35l-15.16-32.5 8.88-19 24 51.54h35L215.46 209zm502.53 26.74v-29.83l-25.17 11.74v18.09H656v15.68h8.07v74.48h25.17v-74.49H702v-15.68zm-203.34 90.16h25.17v-90.17h-25.17zm149.89-120l-25.17 11.74v18.09h-8.07v15.68h8.07v74.48h25.17v-74.48h12.77v-15.68h-12.77zm-39.12 67.49v14.83c0 21.49-10.5 39.62-36.29 39.62s-36.29-18-36.29-39.62v-14.82c0-21.58 10.5-39.62 36.29-39.62s36.29 18.13 36.29 39.62zm-25.37-3.57c0-10.78-2.62-18.43-10.92-18.43s-10.92 7.65-10.92 18.43v22c0 10.78 2.57 18.43 10.92 18.43s10.92-7.65 10.92-18.43z" class="cls-1" fill="#000"/></g></g></g></svg>